# File created by Blade
# Date/Time:  Fri Jan 16 15:45:48 2015
# Frame Rate: 120.000 fps
#------------------------------------------------------
:FULLY-SPECIFIED
:DEGREES
3994
root -6.081618 35.283818 -10.329433 0.239546 12.910925 -4.550323
Spine -14.235452 6.761797 -0.863941
Head 16.883193 -40.894423 -5.446982
LeftShoulder -12.802269 11.357536 -14.884544
LeftArm 18.993810 14.732859 -65.978159
LeftForeArm 16.745567 -0.000000 9.934562
LeftHand 3.016532 -0.000000 -10.252942
LeftHandThumb1 -26.253704 0.000000 33.147579
RightShoulder -12.611940 34.208132 -43.193854
RightArm 122.864996 64.995269 119.764831
RightForeArm 19.479704 0.000000 98.390971
RightHand -0.798849 -0.000000 -84.804697
RightHandThumb1 -24.326973 -0.000000 -32.862282
LeftUpLeg 3.573743 3.646568 6.390269
LeftLeg -7.067426 -0.000000 0.000000
LeftFoot -12.252518 20.577463 -7.998480
LeftToeBase 23.232298 -0.000000 -0.000000
RightUpLeg 7.217719 -15.312779 2.798785
RightLeg -3.677548 -0.000000 0.000000
RightFoot -7.631052 -32.223026 7.456830
RightToeBase 12.642478 -0.000000 -0.000000
3995
root -6.076815 35.284430 -10.324244 0.236285 12.974360 -4.520500
Spine -14.291373 6.781141 -0.867854
Head 17.039050 -40.901009 -5.654812
LeftShoulder -12.794436 11.480727 -14.871743
LeftArm 19.056257 14.822487 -65.937014
LeftForeArm 16.766871 -0.000000 9.940270
LeftHand 2.983240 0.000000 -10.343141
LeftHandThumb1 -26.253704 0.000000 33.147579
RightShoulder -12.512965 34.135494 -43.055101
RightArm 123.332605 64.902263 120.530556
RightForeArm 19.515921 -0.000000 98.481018
RightHand -0.781167 -0.000000 -84.889252
RightHandThumb1 -24.326973 -0.000000 -32.862282
LeftUpLeg 3.576415 3.744515 6.357460
LeftLeg -7.069669 -0.000000 0.000000
LeftFoot -12.213313 20.416350 -8.008658
LeftToeBase 23.226483 -0.000000 -0.000000
RightUpLeg 7.257487 -15.301522 2.767375
RightLeg -3.706830 -0.000000 0.000000
RightFoot -7.632707 -32.287902 7.448074
RightToeBase 12.673945 -0.000000 -0.000000
3996
root -6.072415 35.283745 -10.326128 0.234840 13.054647 -4.503458
Spine -14.314604 6.758223 -0.827352
Head 17.142966 -40.889165 -5.861795
LeftShoulder -12.824749 11.524026 -14.893291
LeftArm 19.105491 14.900784 -65.899339
LeftForeArm 16.860180 -0.000000 9.925548
LeftHand 3.004445 -0.000000 -10.365455
LeftHandThumb1 -26.253704 0.000000 33.147579
RightShoulder -12.403254 34.084871 -42.969367
RightArm 123.864628 64.766101 121.389364
RightForeArm 19.472380 -0.000000 98.637993
RightHand -0.815156 0.000000 -84.973017
RightHandThumb1 -24.326973 -0.000000 -32.862282
LeftUpLeg 3.574505 3.718965 6.333312
LeftLeg -7.096549 -0.000000 0.000000
LeftFoot -12.188060 20.375092 -7.995757
LeftToeBase 23.268274 -0.000000 -0.000000
RightUpLeg 7.274996 -15.311485 2.746570
RightLeg -3.718499 -0.000000 0.000000
RightFoot -7.662587 -32.345301 7.476125
RightToeBase 12.677244 -0.000000 -0.000000
3997
root -6.071115 35.284292 -10.326233 0.196263 13.118585 -4.500456
Spine -14.282147 6.734563 -0.789593
Head 17.184568 -40.921064 -6.053269
LeftShoulder -12.809602 11.465726 -14.864165
LeftArm 19.038695 14.999135 -65.906047
LeftForeArm 16.912711 -0.000000 9.904791
LeftHand 2.985497 -0.000000 -10.404125
LeftHandThumb1 -26.253704 0.000000 33.147579
RightShoulder -12.236362 33.895106 -42.780970
RightArm 124.691306 64.598275 122.414546
RightForeArm 19.147251 -0.000000 98.767530
RightHand -0.891029 0.000000 -85.198842
RightHandThumb1 -24.326973 -0.000000 -32.862282
LeftUpLeg 3.607417 3.718547 6.333581
LeftLeg -7.115941 -0.000000 0.000000
LeftFoot -12.159480 20.296415 -8.013744
LeftToeBase 23.258754 -0.000000 -0.000000
RightUpLeg 7.326063 -15.313651 2.738756
RightLeg -3.733885 -0.000000 0.000000
RightFoot -7.679606 -32.400468 7.526227
RightToeBase 12.697241 -0.000000 -0.000000
